<svg xmlns="http://www.w3.org/2000/svg" viewBox="0 0 505 100" width="505" height="100" role="img" aria-label="Set the Table" xmlns:c2pa="http://c2pa.org/manifest"><metadata><c2pa:manifest>AAAWgmp1bWIAAAAeanVtZGMycGEAEQAQgAAAqgA4m3EDYzJwYQAAABZcanVtYgAAAEdqdW1kYzJtYQARABCAAACqADibcQN1cm46YzJwYTo5YWYwZTViZi1kZmUxLTQ3ZjEtOTM3OC1lZGNjMTA4Y2RkOTIAAAADl2p1bWIAAAApanVtZGMyYXMAEQAQgAAAqgA4m3EDYzJwYS5hc3NlcnRpb25zAAAAALxqdW1iAAAARGp1bWRjYm9yABEAEIAAAKoAOJtxE2MycGEuaW5ncmVkaWVudC52MwAAAAAYYzJzaLkiwHb5wDR1CsANuIugkRQAAABwY2JvcqNpZGM6Zm9ybWF0bWltYWdlL3N2Zyt4bWxqaW5zdGFuY2VJRHgseG1wOmlpZDo0OThiMmJmYS00YjA0LTQ5ZTAtOTAxNS02NmYzZmRiMjFhMmNscmVsYXRpb25zaGlwaHBhcmVudE9mAAAB4mp1bWIAAABBanVtZGNib3IAEQAQgAAAqgA4m3ETYzJwYS5hY3Rpb25zLnYyAAAAABhjMnNoZsHMoHrR/voajzT9E9FIgAAAAZljYm9yomdhY3Rpb25zgqJmYWN0aW9ua2MycGEub3BlbmVkanBhcmFtZXRlcnOha2luZ3JlZGllbnRzgaJjdXJseC1zZWxmI2p1bWJmPWMycGEuYXNzZXJ0aW9ucy9jMnBhLmluZ3JlZGllbnQudjNkaGFzaFggswVnRVlasc6P1BTXPAaF1kqbvwM/BxmP8RGPydrFs++kZmFjdGlvbngdY29tLmFudGhyb3BpYy5jbGF1ZGUucHJvdmlkZWRqcGFyYW1ldGVyc6F4H2NvbS5hbnRocm9waWMub3JpZ2luLWNvbmZpZGVuY2VndW5rbm93bmtkZXNjcmlwdGlvbnhmQ2xhdWRlIHByb3ZpZGVkIHRoaXMgZmlsZSBhdCB0aGUgcmVxdWVzdCBvZiBhIHVzZXIgYW5kIG1heSBoYXZlIGNyZWF0ZWQgb3IgbW9kaWZpZWQgdGhlIGZpbGUgY29udGVudHMubXNvZnR3YXJlQWdlbnShZG5hbWVmQ2xhdWRlcmFsbEFjdGlvbnNJbmNsdWRlZPUAAADIanVtYgAAAEBqdW1kY2JvcgARABCAAACqADibcRNjMnBhLmhhc2guZGF0YQAAAAAYYzJzaCLobn9EkyXW5nZjVIbPcUgAAACAY2JvcqVjYWxnZnNoYTI1NmNwYWRNAAAAAAAAAAAAAAAAAGRoYXNoWCAQ138o3MVvicqs4530mauoQ14td3zTqIyFlAuLjDlqFmRuYW1lbmp1bWJmIG1hbmlmZXN0amV4Y2x1c2lvbnOBomVzdGFydBi8Zmxlbmd0aBkeBAAAAj5qdW1iAAAAJ2p1bWRjMmNsABEAEIAAAKoAOJtxA2MycGEuY2xhaW0udjIAAAACD2Nib3KlY2FsZ2ZzaGEyNTZpc2lnbmF0dXJleE1zZWxmI2p1bWJmPS9jMnBhL3VybjpjMnBhOjlhZjBlNWJmLWRmZTEtNDdmMS05Mzc4LWVkY2MxMDhjZGQ5Mi9jMnBhLnNpZ25hdHVyZWppbnN0YW5jZUlEeCx4bXA6aWlkOmE1MWM5ZDU0LTkzNzAtNDA5ZS1hM2FhLWEwZTkzNWFkYTNhMnJjcmVhdGVkX2Fzc2VydGlvbnODomN1cmx4LXNlbGYjanVtYmY9YzJwYS5hc3NlcnRpb25zL2MycGEuaW5ncmVkaWVudC52M2RoYXNoWCCzBWdFWVqxzo/UFNc8BoXWSpu/Az8HGY/xEY/J2sWz76JjdXJseCpzZWxmI2p1bWJmPWMycGEuYXNzZXJ0aW9ucy9jMnBhLmFjdGlvbnMudjJkaGFzaFggGb+TnCNC04oSNDPgkr5EYYfVGkMXEnoEwxeM8fOF5R6iY3VybHgpc2VsZiNqdW1iZj1jMnBhLmFzc2VydGlvbnMvYzJwYS5oYXNoLmRhdGFkaGFzaFggdGYHf6dLxFw8JnHtCjXwwXHSiayxMtjsQdcDkAp16SJ0Y2xhaW1fZ2VuZXJhdG9yX2luZm+jZG5hbWVvQW50aHJvcGljIEZpbGVzZ3ZlcnNpb25lMS4wLjBrc3BlY1ZlcnNpb25lMi40LjAAABA4anVtYgAAAChqdW1kYzJjcwARABCAAACqADibcQNjMnBhLnNpZ25hdHVyZQAAABAIY2JvctKEWQISogEmGCFZAgowggIGMIIBjaADAgECAhRA5aAK7sI50L64g/oGQgU9Z1UTADAKBggqhkjOPQQDAzBJMRcwFQYDVQQKEw5BbnRocm9waWMsIFBCQzEuMCwGA1UEAxMlQW50aHJvcGljIENvbnRlbnQgQ3JlZGVudGlhbHMgUm9vdCBDQTAeFw0yNjA4MDcxODQzNTZaFw0yODA4MDYxOTQzNTZaMEQxFzAVBgNVBAoTDkFudGhyb3BpYywgUEJDMSkwJwYDVQQDEyBBbnRocm9waWMgQ2xhdWRlIENvbnRlbnQgU2lnbmluZzBZMBMGByqGSM49AgEGCCqGSM49AwEHA0IABJh6CmvLUBgFFNU0vUKlOVtE6djd17L5SuwX0LemFisBM3dkd/3cyjxFA3Qo5S46fX0/ihY0VZ7mfb9KF703t5OjWDBWMA4GA1UdDwEB/wQEAwIHgDAVBgNVHSUEDjAMBgorBgEEAYPoXgIBMAwGA1UdEwEB/wQCMAAwHwYDVR0jBBgwFoAUzlHiBIFOZFsj+OPEz5o+nMHXXMIwCgYIKoZIzj0EAwMDZwAwZAIwMXMdFJ4BetLLVY7ORuE9noqbbAZOZn/aArXyTwFAZfKrPzxF2vPoJNf1+UCdg1XGAjBwX1zd9WGqYkqmL5SFqw1QySjr1zJfpJM9+1rdDwSPLMOPOjKuiXjoU/pUUeG9RwmhY3BhZFkNngAAAAAAAAAAAAAAAAAAAAAAAAAAAAAAAAAAAAAAAAAAAAAAAAAAAAAAAAAAAAAAAAAAAAAAAAAAAAAAAAAAAAAAAAAAAAAAAAAAAAAAAAAAAAAAAAAAAAAAAAAAAAAAAAAAAAAAAAAAAAAAAAAAAAAAAAAAAAAAAAAAAAAAAAAAAAAAAAAAAAAAAAAAAAAAAAAAAAAAAAAAAAAAAAAAAAAAAAAAAAAAAAAAAAAAAAAAAAAAAAAAAAAAAAAAAAAAAAAAAAAAAAAAAAAAAAAAAAAAAAAAAAAAAAAAAAAAAAAAAAAAAAAAAAAAAAAAAAAAAAAAAAAAAAAAAAAAAAAAAAAAAAAAAAAAAAAAAAAAAAAAAAAAAAAAAAAAAAAAAAAAAAAAAAAAAAAAAAAAAAAAAAAAAAAAAAAAAAAAAAAAAAAAAAAAAAAAAAAAAAAAAAAAAAAAAAAAAAAAAAAAAAAAAAAAAAAAAAAAAAAAAAAAAAAAAAAAAAAAAAAAAAAAAAAAAAAAAAAAAAAAAAAAAAAAAAAAAAAAAAAAAAAAAAAAAAAAAAAAAAAAAAAAAAAAAAAAAAAAAAAAAAAAAAAAAAAAAAAAAAAAAAAAAAAAAAAAAAAAAAAAAAAAAAAAAAAAAAAAAAAAAAAAAAAAAAAAAAAAAAAAAAAAAAAAAAAAAAAAAAAAAAAAAAAAAAAAAAAAAAAAAAAAAAAAAAAAAAAAAAAAAAAAAAAAAAAAAAAAAAAAAAAAAAAAAAAAAAAAAAAAAAAAAAAAAAAAAAAAAAAAAAAAAAAAAAAAAAAAAAAAAAAAAAAAAAAAAAAAAAAAAAAAAAAAAAAAAAAAAAAAAAAAAAAAAAAAAAAAAAAAAAAAAAAAAAAAAAAAAAAAAAAAAAAAAAAAAAAAAAAAAAAAAAAAAAAAAAAAAAAAAAAAAAAAAAAAAAAAAAAAAAAAAAAAAAAAAAAAAAAAAAAAAAAAAAAAAAAAAAAAAAAAAAAAAAAAAAAAAAAAAAAAAAAAAAAAAAAAAAAAAAAAAAAAAAAAAAAAAAAAAAAAAAAAAAAAAAAAAAAAAAAAAAAAAAAAAAAAAAAAAAAAAAAAAAAAAAAAAAAAAAAAAAAAAAAAAAAAAAAAAAAAAAAAAAAAAAAAAAAAAAAAAAAAAAAAAAAAAAAAAAAAAAAAAAAAAAAAAAAAAAAAAAAAAAAAAAAAAAAAAAAAAAAAAAAAAAAAAAAAAAAAAAAAAAAAAAAAAAAAAAAAAAAAAAAAAAAAAAAAAAAAAAAAAAAAAAAAAAAAAAAAAAAAAAAAAAAAAAAAAAAAAAAAAAAAAAAAAAAAAAAAAAAAAAAAAAAAAAAAAAAAAAAAAAAAAAAAAAAAAAAAAAAAAAAAAAAAAAAAAAAAAAAAAAAAAAAAAAAAAAAAAAAAAAAAAAAAAAAAAAAAAAAAAAAAAAAAAAAAAAAAAAAAAAAAAAAAAAAAAAAAAAAAAAAAAAAAAAAAAAAAAAAAAAAAAAAAAAAAAAAAAAAAAAAAAAAAAAAAAAAAAAAAAAAAAAAAAAAAAAAAAAAAAAAAAAAAAAAAAAAAAAAAAAAAAAAAAAAAAAAAAAAAAAAAAAAAAAAAAAAAAAAAAAAAAAAAAAAAAAAAAAAAAAAAAAAAAAAAAAAAAAAAAAAAAAAAAAAAAAAAAAAAAAAAAAAAAAAAAAAAAAAAAAAAAAAAAAAAAAAAAAAAAAAAAAAAAAAAAAAAAAAAAAAAAAAAAAAAAAAAAAAAAAAAAAAAAAAAAAAAAAAAAAAAAAAAAAAAAAAAAAAAAAAAAAAAAAAAAAAAAAAAAAAAAAAAAAAAAAAAAAAAAAAAAAAAAAAAAAAAAAAAAAAAAAAAAAAAAAAAAAAAAAAAAAAAAAAAAAAAAAAAAAAAAAAAAAAAAAAAAAAAAAAAAAAAAAAAAAAAAAAAAAAAAAAAAAAAAAAAAAAAAAAAAAAAAAAAAAAAAAAAAAAAAAAAAAAAAAAAAAAAAAAAAAAAAAAAAAAAAAAAAAAAAAAAAAAAAAAAAAAAAAAAAAAAAAAAAAAAAAAAAAAAAAAAAAAAAAAAAAAAAAAAAAAAAAAAAAAAAAAAAAAAAAAAAAAAAAAAAAAAAAAAAAAAAAAAAAAAAAAAAAAAAAAAAAAAAAAAAAAAAAAAAAAAAAAAAAAAAAAAAAAAAAAAAAAAAAAAAAAAAAAAAAAAAAAAAAAAAAAAAAAAAAAAAAAAAAAAAAAAAAAAAAAAAAAAAAAAAAAAAAAAAAAAAAAAAAAAAAAAAAAAAAAAAAAAAAAAAAAAAAAAAAAAAAAAAAAAAAAAAAAAAAAAAAAAAAAAAAAAAAAAAAAAAAAAAAAAAAAAAAAAAAAAAAAAAAAAAAAAAAAAAAAAAAAAAAAAAAAAAAAAAAAAAAAAAAAAAAAAAAAAAAAAAAAAAAAAAAAAAAAAAAAAAAAAAAAAAAAAAAAAAAAAAAAAAAAAAAAAAAAAAAAAAAAAAAAAAAAAAAAAAAAAAAAAAAAAAAAAAAAAAAAAAAAAAAAAAAAAAAAAAAAAAAAAAAAAAAAAAAAAAAAAAAAAAAAAAAAAAAAAAAAAAAAAAAAAAAAAAAAAAAAAAAAAAAAAAAAAAAAAAAAAAAAAAAAAAAAAAAAAAAAAAAAAAAAAAAAAAAAAAAAAAAAAAAAAAAAAAAAAAAAAAAAAAAAAAAAAAAAAAAAAAAAAAAAAAAAAAAAAAAAAAAAAAAAAAAAAAAAAAAAAAAAAAAAAAAAAAAAAAAAAAAAAAAAAAAAAAAAAAAAAAAAAAAAAAAAAAAAAAAAAAAAAAAAAAAAAAAAAAAAAAAAAAAAAAAAAAAAAAAAAAAAAAAAAAAAAAAAAAAAAAAAAAAAAAAAAAAAAAAAAAAAAAAAAAAAAAAAAAAAAAAAAAAAAAAAAAAAAAAAAAAAAAAAAAAAAAAAAAAAAAAAAAAAAAAAAAAAAAAAAAAAAAAAAAAAAAAAAAAAAAAAAAAAAAAAAAAAAAAAAAAAAAAAAAAAAAAAAAAAAAAAAAAAAAAAAAAAAAAAAAAAAAAAAAAAAAAAAAAAAAAAAAAAAAAAAAAAAAAAAAAAAAAAAAAAAAAAAAAAAAAAAAAAAAAAAAAAAAAAAAAAAAAAAAAAAAAAAAAAAAAAAAAAAAAAAAAAAAAAAAAAAAAAAAAAAAAAAAAAAAAAAAAAAAAAAAAAAAAAAAAAAAAAAAAAAAAAAAAAAAAAAAAAAAAAAAAAAAAAAAAAAAAAAAAAAAAAAAAAAAAAAAAAAAAAAAAAAAAAAAAAAAAAAAAAAAAAAAAAAAAAAAAAAAAAAAAAAAAAAAAAAAAAAAAAAAAAAAAAAAAAAAAAAAAAAAAAAAAAAAAAAAAAAAAAAAAAAAAAAAAAAAAAAAAAAAAAAAAAAAAAAAAAAAAAAAAAAAAAAAAAAAAAAAAAAAAAAAAAAAAAAAAAAAAAAAAAAAAAAAAAAAAAAAAAAAAAAAAAAAAAAAAAAAAAAAAAAAAAAAAAAAAAAAAAAAAAAAAAAAAAAAAAAAAAAAAAAAAAAAAAAAAAAAAAAAAAAAAAAAAAAAAAAAAAAAAAAAAAAAAAAAAAAAAAAAAAAAAAAAAAAAAAAAAAAAAAAAAAAAAAAAAAAAAAAAAAAAAAAAAAAAAAAAAAAAAAAAAAAAAAAAAAAAAAAAAAAAAAAAAAAAAAAAAAAAAAAAAAAAAAAAAAAAAAAAAAAAAAAAAAAAAAAAAAAAAAAAAAAAAAAAAAAAAAAAAAAAAAAAAAAAAAAAAAAAAAAAAAAAAAAAAAAAAAAAAAAAAAAAAAAAAAAAAAAAAAAAAAAAAAAAAAAAAAAAAAAAAAAAAAAAAAAAAAAAAAAAAAAAAAAAAAAAAAAAAAAAAAAAAAAAAAAAAAAAAAAAAAAAAAAAAAAAAAAAAAAAAAAAAAAAAAAAAAAAAAAAAAAAAAAAAAAAAAAAAAAAAAAAAAAAAAAAAAAAAAAAAAAAAAAAAAAAAAAAAAAAAAAAAAAAAAAAAAAAAAAAAAAAAAAAAAAAAAAAAAAAAAAAAAAAAAAAAAAAAAAAAAAAAAAAAAAAAAAAAAAAAAAAAAAAAAAAAAAAAAAAAAAAAAAAAAAAAAAAAAAAAAAAAAAAAAAAAAAAAAAAAAAAAAAAAAAAAAAAAAAAAAAAAAAAAAAAAAAAAAAAAAAAAAAAAAAAAAAAAAAAAAAAAAAAAAAAAAAAAAAAAAAAAAAAAAAAAAAAAAAAAAAAAAAAAAAAAAAAAAAAAAAAAAAAAAAAAAAAAAAAAAAAAAAAAAAAAAAAAAAAAAAAAAAAAAAAAAAAAAAAAAAAAAAAAAAAAAAAAAAAAAAAAAAAAAAAAAAAAAAAAAAAAAAAAAAAAAAAAAAAAAAAAAAAAAAAAAAAAAAAAAAAAAAAAAAAAAAAAAAAAAAAAAAAAAAAAAAAAAAAAAAAAAAAAAAAAAAAAAAAAAAAAAAAAAAAAAAAAAAAAAAAAAAAAAAAAAAAAAAAAAAAAAAAAAAAAAAAAAAAAAAAAAAAAAAAAAAAAAAAAAAAAAAAAAAAAAAAAAAAAAAAAAAAAAAAAAAAAAAAAAAAAAAAAAAAAAAAAAAAAAAAAAAAAAAAAAAAAAAAAAAAAAAAAAAAAAAAAAAAAAAAAAAAAAAAPZYQPo94jXEVWU2OqJIShspk5gUClBTGVpzEXl7WO4RM0Gpxl5We/Q8sZe/QjfhhzOJL9GTjdufypJmKEOdWkXMRLo=</c2pa:manifest></metadata>
<title>Set the Table</title>
<circle cx="50" cy="50" r="40" fill="none" stroke="#C9A84C" stroke-width="7"/><circle cx="50" cy="50" r="24" fill="none" stroke="#C9A84C" stroke-width="2.5" opacity="0.75"/>
<path d="M143.250404296875 72.832Q139.731203125 72.832 136.4196025390625 71.7443994140625Q133.108001953125 70.656798828125 130.64440136718753 68.64159765625Q128.18080078125 66.626396484375 127.2 63.811195312500004L129.772029296875 62.826384765625Q130.605626953125 65.177578125 132.736822265625 66.79597460937501Q134.868017578125 68.41437109375 137.6500126953125 69.24716992187501Q140.4320078125 70.07996875 143.250404296875 70.07996875Q146.68959765625 70.07996875 149.669591796875 68.904771484375Q152.6495859375 67.72957421875 154.48678222656253 65.5979794921875Q156.32397851562502 63.466384765625 156.32397851562502 60.581591796875Q156.32397851562502 57.64319921875 154.4227822265625 55.7628037109375Q152.5215859375 53.882408203124996 149.525591796875 52.7872109375Q146.52959765625 51.692013671875 143.250404296875 51.093615234375Q138.760802734375 50.272015624999995 135.19360156250002 48.9716142578125Q131.626400390625 47.671212890625 129.55759960937502 45.288810546875Q127.488798828125 42.906408203125 127.488798828125 38.843207031249996Q127.488798828125 35.1008046875 129.685599609375 32.350002929687506Q131.882400390625 29.599201171875002 135.4816015625 28.096Q139.080802734375 26.592798828124998 143.250404296875 26.592798828124998Q146.63040625 26.592798828124998 149.91520703125 27.637599609375Q153.2000078125 28.682400390625 155.72240820312498 30.7084013671875Q158.24480859375 32.73440234375 159.36480859375 35.677603515625L156.72877929687502 36.608814453125Q155.895181640625 34.247220703125 153.7747861328125 32.62882421875Q151.654390625 31.010427734375 148.8667958984375 30.1828291015625Q146.079201171875 29.35523046875 143.250404296875 29.35523046875Q139.80001171875 29.344830078125 136.836017578125 30.53602734375Q133.8720234375 31.727224609375 132.0564267578125 33.8588193359375Q130.240830078125 35.9904140625 130.240830078125 38.843207031249996Q130.240830078125 42.111999999999995 131.9444267578125 43.901595703125Q133.6480234375 45.69119140625 136.5852177734375 46.610388671875Q139.522412109375 47.5295859375 143.250404296875 48.223984375Q147.43040625 48.981583984375 151.03480761718748 50.4795849609375Q154.639208984375 51.977585937499995 156.85760937499998 54.445587890625Q159.076009765625 56.91358984375 159.076009765625 60.581591796875Q159.076009765625 64.31359375 156.8684091796875 67.069595703125Q154.66080859375 69.82559765625 151.061607421875 71.328798828125Q147.46240625000002 72.832 143.250404296875 72.832Z M179.2 72.832Q174.784 72.832 171.152 70.56Q167.52 68.288 165.36 64.464Q163.2 60.64 163.2 56.0Q163.2 52.480000000000004 164.44799999999998 49.424Q165.696 46.367999999999995 167.888 44.047999999999995Q170.08 41.727999999999994 172.99200000000002 40.416Q175.904 39.104 179.2 39.104Q182.6656015625 39.104 185.58200292968752 40.4256015625Q188.498404296875 41.747203125 190.6476044921875 44.167205078125Q192.7968046875 46.58720703125 193.965603515625 49.9036083984375Q195.13440234375 53.220009765625 195.11519921875 57.199208984375H166.035234375Q166.37603515625 60.887197265625 168.208830078125 63.7947880859375Q170.041625 66.70237890625 172.9004169921875 68.3859736328125Q175.759208984375 70.069568359375 179.2 70.07996875Q183.0047890625 70.07996875 186.0451806640625 68.07037500000001Q189.085572265625 66.06078125 190.89116796875 62.522392578125L193.664 63.168Q191.744 67.424 187.872 70.128Q184.0 72.832 179.2 72.832ZM165.9936328125 54.72798828125H192.352767578125Q192.19356640625 51.23359765625 190.3827705078125 48.267606445312495Q188.571974609375 45.301615234375 185.643982421875 43.511220703125005Q182.715990234375 41.720826171875004 179.2 41.720826171875004Q175.66241015625 41.720826171875004 172.77721777343748 43.4684208984375Q169.892025390625 45.216015625 168.08642968750002 48.17120703125Q166.280833984375 51.1263984375 165.9936328125 54.72798828125Z M215.55760742187502 42.75203125H207.15362109375002L207.10002148437502 72.0H204.347990234375L204.40158984375 42.75203125H198.06959960937502V40.0H204.40158984375L204.347990234375 29.951999999999998H207.10002148437502L207.15362109375002 40.0H215.55760742187502Z M250.02160742187505 42.75203125H241.61762109375005L241.56402148437505 72.0H238.81199023437503L238.86558984375003 42.75203125H232.53359960937505V40.0H238.86558984375003L238.81199023437503 29.951999999999998H241.56402148437505L241.61762109375005 40.0H250.02160742187505Z M281.63361328125 52.40799609375V72.0H278.88158203125005V52.69920703125Q278.88158203125005 49.6864140625 277.4179853515625 47.24001953125Q275.954388671875 44.793625 273.4971943359375 43.33002832031249Q271.04 41.866431640624995 268.048806640625 41.866431640624995Q265.068013671875 41.866431640624995 262.605619140625 43.33002832031249Q260.143224609375 44.793625 258.6796279296875 47.24001953125Q257.21603125 49.6864140625 257.21603125 52.69920703125V72.0H254.46400000000003V24.0H257.21603125V45.215185546875Q258.95523046875 42.437591796875 261.89122656250004 40.7707958984375Q264.82722265625 39.104 268.32961718750005 39.104Q272.010416015625 39.104 275.029615234375 40.8963994140625Q278.04881445312503 42.688798828125 279.84121386718755 45.707998046875Q281.63361328125 48.727197265624994 281.63361328125 52.40799609375Z M300.83200000000005 72.832Q296.41600000000005 72.832 292.78400000000005 70.56Q289.15200000000004 68.288 286.9920000000001 64.464Q284.83200000000005 60.64 284.83200000000005 56.0Q284.83200000000005 52.480000000000004 286.08000000000004 49.424Q287.32800000000003 46.367999999999995 289.52000000000004 44.047999999999995Q291.71200000000005 41.727999999999994 294.624 40.416Q297.53600000000006 39.104 300.83200000000005 39.104Q304.29760156250006 39.104 307.2140029296876 40.4256015625Q310.13040429687504 41.747203125 312.27960449218756 44.167205078125Q314.4288046875 46.58720703125 315.597603515625 49.9036083984375Q316.76640234375003 53.220009765625 316.74719921875004 57.199208984375H287.667234375Q288.00803515625006 60.887197265625 289.840830078125 63.7947880859375Q291.673625 66.70237890625 294.53241699218756 68.3859736328125Q297.39120898437506 70.069568359375 300.83200000000005 70.07996875Q304.63678906250004 70.07996875 307.6771806640626 68.07037500000001Q310.71757226562505 66.06078125 312.52316796875004 62.522392578125L315.29600000000005 63.168Q313.37600000000003 67.424 309.504 70.128Q305.63200000000006 72.832 300.83200000000005 72.832ZM287.62563281250004 54.72798828125H313.98476757812506Q313.82556640625006 51.23359765625 312.01477050781256 48.267606445312495Q310.20397460937505 45.301615234375 307.275982421875 43.511220703125005Q304.34799023437506 41.720826171875004 300.83200000000005 41.720826171875004Q297.29441015625 41.720826171875004 294.4092177734375 43.4684208984375Q291.524025390625 45.216015625 289.7184296875 48.17120703125Q287.912833984375 51.1263984375 287.62563281250004 54.72798828125Z" fill="#FFFFFF"/>
<path d="M371.80319921875 27.199999999999996V36.031875H358.61913671875V72.0H349.78726171875V36.031875H336.608V27.199999999999996Z M400.40328125 40.0H409.23515625000005V72.0H400.37608203125L399.97128906250003 68.659125Q398.72967968750004 70.52955859375 396.770455078125 71.68077929687499Q394.81123046875 72.832 392.18559375 72.832Q388.6111953125 72.832 385.498396484375 71.490400390625Q382.38559765625 70.14880078125 380.0223984375 67.772001953125Q377.65919921875 65.395203125 376.333599609375 62.282404296875Q375.00800000000004 59.16960546875 375.00800000000004 55.59520703125Q375.00800000000004 52.166406249999994 376.26320117187504 49.1808046875Q377.51840234375004 46.195203125 379.77920312500004 43.932001953124995Q382.04000390625004 41.66880078125 385.00960546875 40.386400390625Q387.97920703125004 39.104 391.38080859375003 39.104Q394.32003906250003 39.104 396.68405664062504 40.35521875Q399.04807421875 41.6064375 400.80807421875 43.50887109375ZM391.95359765625 64.34571875Q394.1536328125 64.34571875 395.910453125 63.223302734375Q397.6672734375 62.10088671875 398.682482421875 60.204859375Q399.69769140625004 58.30883203125 399.69769140625004 56.0Q399.69769140625004 53.676765625 398.68008203125004 51.783138671875Q397.66247265625003 49.88951171875 395.90565234375003 48.76949609375Q394.14883203125004 47.64948046875 391.95359765625 47.64948046875Q389.75836328125 47.64948046875 387.96473437500003 48.771896484375Q386.17110546875 49.8943125 385.12148828125 51.79033984375Q384.07187109375 53.6863671875 384.07187109375 56.0Q384.07187109375 58.31843359375 385.1422890625 60.212060546875Q386.21270703125003 62.1056875 388.0063359375 63.225703125Q389.79996484375005 64.34571875 391.95359765625 64.34571875Z M431.76315625 39.104Q436.43515625000003 39.104 440.272755859375 41.376Q444.11035546875 43.647999999999996 446.38235546875 47.471999999999994Q448.65435546875 51.296 448.65435546875 55.940800781250005Q448.65435546875 59.428800781250004 447.34235546875004 62.498400390625Q446.03035546875003 65.568 443.71035546875004 67.888Q441.39035546875004 70.208 438.33435546875 71.52Q435.27835546875 72.832 431.76315625 72.832Q429.01912109375 72.832 426.87350000000004 71.62398046875Q424.72787890625 70.4159609375 423.199875 68.54552734375V72.0H414.368V24.0H423.199875V43.39047265625Q424.72787890625 41.49283984375 426.87350000000004 40.298419921874995Q429.01912109375 39.104 431.76315625 39.104ZM431.64955859375004 64.28651953125Q433.84959375 64.28651953125 435.654421875 63.164103515625Q437.45925 62.0416875 438.52486718750004 60.14566015625Q439.590484375 58.249632812499996 439.590484375 55.940800781250005Q439.590484375 53.644765625 438.52006640625 51.751138671875Q437.4496484375 49.857511718750004 435.642419921875 48.723896484375004Q433.83519140625003 47.590281250000004 431.64955859375004 47.590281250000004Q429.4815234375 47.590281250000004 427.73590234375 48.728697265625Q425.99028125 49.86711328125 424.97507226562504 51.763140625Q423.95986328125 53.65916796875 423.95986328125 55.940800781250005Q423.95986328125 58.259234375 424.97747265625003 60.152861328125Q425.99508203125004 62.04648828125 427.74070312500004 63.16650390625Q429.48632421875004 64.28651953125 431.64955859375004 64.28651953125Z M453.12 72.0V24.0H461.95187500000003V72.0Z M482.4320000000001 72.832Q478.0160000000001 72.832 474.38400000000007 70.56Q470.75200000000007 68.288 468.5920000000001 64.45040039062499Q466.4320000000001 60.61280078125 466.4320000000001 55.97280078125Q466.4320000000001 52.480000000000004 467.68000000000006 49.424Q468.92800000000005 46.367999999999995 471.12000000000006 44.047999999999995Q473.31200000000007 41.727999999999994 476.22400000000005 40.416Q479.1360000000001 39.104 482.4320000000001 39.104Q486.22879296875004 39.104 489.38398828125 40.743193359375Q492.53918359375007 42.38238671875 494.72638281250005 45.195978515625Q496.91358203125003 48.0095703125 497.8679863281251 51.564765625Q498.8223906250001 55.1199609375 498.1680039062501 58.9471640625H475.95506250000005Q476.39346093750004 60.3552109375 477.26548046875007 61.490447265624994Q478.13750000000005 62.62568359375 479.43833203125007 63.296904296875Q480.73916406250004 63.968125 482.4320000000001 64.000125Q484.10884375000006 64.02732421875 485.5152773437501 63.23369921875Q486.92171093750005 62.44007421875 487.91852734375004 61.0784296875L496.92319921875 63.168Q494.97600000000006 67.424 491.10400000000004 70.128Q487.2320000000001 72.832 482.4320000000001 72.832ZM475.63666796875003 52.420847656250004H489.24973046875004Q488.8353359375001 50.804808593749996 487.8361191406251 49.535173828125Q486.83690234375007 48.2655390625 485.4424707031251 47.525517578125Q484.04803906250004 46.78549609375 482.4320000000001 46.78549609375Q480.84316015625006 46.78549609375 479.45352929687505 47.520716796875Q478.06389843750003 48.2559375 477.080681640625 49.525572265625Q476.09746484375006 50.79520703125 475.63666796875003 52.420847656250004Z" fill="#C9A84C"/>
</svg>
